#!OML:ASF H:\Terrain\Patient Classification 1\Walking\liu\liu.ASF
:FULLY-SPECIFIED
:DEGREES
248
root 9.39561 16.3954 -1.75449 9.61948 -6.10011 -1.24824
lowerback -5.4885 1.91853 -1.31099
upperback -3.63069 2.61106 1.77903
thorax -0.804568 1.3499 2.68293
lowerneck -18.3441 -5.63659 -13.8775
upperneck 18.1258 -7.09631 14.2202
head 9.80921 -2.77776 6.35089
rclavicle 2.50531e-014 -4.77083e-015
rhumerus -48.342 9.58266 -87.5833
rradius 41.0504
rwrist -24.1587
rhand -30.0814 -24.4907
rfingers 7.12502
rthumb -3.39603 -54.4434
lclavicle 2.50531e-014 -4.77083e-015
lhumerus -46.2515 -5.49026 89.2663
lradius 19.8743
lwrist -4.09232
lhand -9.04816 -23.7439
lfingers 7.12502
lthumb 16.9001 5.54076
rfemur 8.5713 0.534105 18.7084
rtibia 34.0473
rfoot 10.6348 4.86173
rtoes -15.8888
lfemur -42.3769 9.52699 -24.5601
ltibia 41.7357
lfoot -8.82584 5.43124
ltoes 2.59304
249
root 9.43033 16.4255 -1.62185 9.475 -6.40898 -1.32108
lowerback -5.83746 2.00888 -0.945009
upperback -2.99101 2.70945 1.66411
thorax 0.0662706 1.37813 2.39351
lowerneck -19.3138 -5.74031 -13.5618
upperneck 18.0455 -7.17057 14.0893
head 9.95592 -2.76704 6.22915
rclavicle 3.17838e-014 2.34566e-014
rhumerus -47.498 9.72078 -87.9036
rradius 40.737
rwrist -25.4176
rhand -29.9229 -26.9785
rfingers 7.12502
rthumb -3.24298 -56.9336
lclavicle 3.17838e-014 2.34566e-014
lhumerus -44.4299 -5.54866 88.7619
lradius 19.8029
lwrist -5.12247
lhand -9.24877 -23.8447
lfingers 7.12502
lthumb 16.707 5.45635
rfemur 6.88543 0.277535 18.6492
rtibia 37.1974
rfoot 11.2347 3.98186
rtoes -15.9513
lfemur -41.3837 9.32013 -24.3109
ltibia 41.2708
lfoot -9.2667 5.689
ltoes 4.89019
250
root 9.46596 16.4571 -1.47832 9.37211 -6.73566 -1.12432
lowerback -6.07972 2.06442 -0.919359
upperback -2.67214 2.78033 1.54192
thorax 0.533004 1.40548 2.27581
lowerneck -19.5611 -5.72632 -13.4222
upperneck 17.8915 -7.12262 13.9958
head 9.93041 -2.73594 6.17102
rclavicle -1.39895e-014 1.23246e-014
rhumerus -47.127 10.0096 -88.3736
rradius 39.9681
rwrist -27.3582
rhand -32.1859 -22.9591
rfingers 7.12502
rthumb -5.42824 -52.8696
lclavicle -1.39895e-014 1.23246e-014
lhumerus -43.4565 -6.40064 89.0804
lradius 20.3166
lwrist -4.83734
lhand -9.61464 -22.7576
lfingers 7.12502
lthumb 16.3547 6.57283
rfemur 5.23828 0.158636 18.2682
rtibia 40.334
rfoot 11.8847 3.13172
rtoes -16.3768
lfemur -40.3228 9.09794 -24.4568
ltibia 40.6691
lfoot -9.53611 6.04506
ltoes 4.07019
251
root 9.49833 16.4931 -1.33286 9.04671 -7.1476 -0.390475
lowerback -5.9861 2.10172 -1.51959
upperback -2.41425 2.86432 1.33361
thorax 0.723321 1.44616 2.40532
lowerneck -19.9207 -5.70238 -13.4117
upperneck 17.9499 -7.05168 13.9939
head 10.0058 -2.68915 6.18111
rclavicle 9.02607e-015 -7.15625e-015
rhumerus -46.4886 9.11945 -87.3854
rradius 39.6749
rwrist -23.8564
rhand -30.5673 -27.1916
rfingers 7.12502
rthumb -3.86532 -57.1363
lclavicle 9.02607e-015 -7.15625e-015
lhumerus -42.47 -6.61038 88.822
lradius 20.3603
lwrist -5.09818
lhand -8.98243 -23.4465
lfingers 7.12502
lthumb 16.9633 5.83277
rfemur 3.77272 0.00778527 17.2388
rtibia 43.3737
rfoot 12.3555 2.4548
rtoes -17.5848
lfemur -39.0359 9.16868 -25.3033
ltibia 40.0477
lfoot -9.89129 6.26287
ltoes 3.1396
252
root 9.52676 16.5206 -1.20551 8.77544 -7.33473 0.244537
lowerback -5.73849 2.00914 -2.10217
upperback -2.20924 2.7719 1.19766
thorax 0.779952 1.39953 2.58087
lowerneck -20.6294 -5.68219 -13.3086
upperneck 18.2595 -6.99028 13.9613
head 10.2316 -2.63019 6.17135
rclavicle -1.33558e-014 -2.3059e-014
rhumerus -45.9429 8.5927 -86.9275
rradius 39.1844
rwrist -21.8334
rhand -31.7886 -28.9876
rfingers 7.12502
rthumb -5.04457 -58.9076
lclavicle -1.33558e-014 -2.3059e-014
lhumerus -41.452 -6.6859 88.679
lradius 20.6358
lwrist -4.8268
lhand -8.32805 -23.1761
lfingers 7.12502
lthumb 17.5932 6.04788
rfemur 2.25507 -0.29743 16.4387
rtibia 46.2574
rfoot 12.6073 1.17289
rtoes -18.7592
lfemur -37.8833 9.1306 -26.0506
ltibia 39.3883
lfoot -10.1601 6.46075
ltoes 2.73251
